# MagicaVoxel @ Ephtracy

# group
o 

# material
mtllib sheep-0.mtl
usemtl palette

# normals
vn -1 0 0
vn 1 0 0
vn 0 0 1
vn 0 0 -1
vn 0 -1 0
vn 0 1 0

# texcoords
vt 0.970703 0.5
vt 0.990234 0.5
vt 0.994141 0.5

# verts
v -0.1 1.7 -3.9
v -0.1 1.7 -4.1
v -0.1 1.8 -3.9
v -0.1 1.8 -4
v -0.1 1.8 -4.1
v -0.1 1.9 -3.9
v -0.1 1.9 -4
v -0.1 2 -3.9
v -0.1 2 -4.1
v -0.1 2.1 -3.9
v -0.1 2.1 -4
v -0.1 2.2 -4
v -0.1 2.2 -4.1
v -0.1 2.3 -3.9
v -0.1 2.3 -4.1
v 0.1 1.7 -3.9
v 0.1 1.7 -4.1
v 0.1 1.8 -3.9
v 0.1 1.8 -4.1
v 0.1 1.9 -3.9
v 0.1 1.9 -4
v 0.1 2 -4
v 0.1 2 -4.1
v 0.1 2.3 -3.9
v 0.1 2.3 -4.1
v -0.1 1.7 -3.9
v -0.1 1.8 -3.9
v -0.1 1.9 -3.9
v -0.1 2 -3.9
v -0.1 2.1 -3.9
v -0.1 2.3 -3.9
v 0 2 -3.9
v 0 2.1 -3.9
v 0.1 1.7 -3.9
v 0.1 1.8 -3.9
v 0.1 1.9 -3.9
v 0.1 2.3 -3.9
v -0.1 1.7 -4.1
v -0.1 1.8 -4.1
v -0.1 2 -4.1
v -0.1 2.2 -4.1
v -0.1 2.3 -4.1
v 0 1.8 -4.1
v 0 2 -4.1
v 0 2.2 -4.1
v 0.1 1.7 -4.1
v 0.1 1.8 -4.1
v 0.1 2 -4.1
v 0.1 2.3 -4.1
v -0.1 1.7 -3.9
v 0.1 1.7 -3.9
v -0.1 1.7 -4.1
v 0.1 1.7 -4.1
v -0.1 2.3 -3.9
v 0.1 2.3 -3.9
v -0.1 2.3 -4.1
v 0.1 2.3 -4.1

# faces
f 3/2/1 2/2/1 1/2/1
f 4/2/1 2/2/1 3/2/1
f 5/2/1 2/2/1 4/2/1
f 6/3/1 4/3/1 3/3/1
f 7/1/1 5/1/1 4/1/1
f 7/3/1 4/3/1 6/3/1
f 8/1/1 7/1/1 6/1/1
f 9/1/1 5/1/1 7/1/1
f 9/1/1 7/1/1 8/1/1
f 10/3/1 9/3/1 8/3/1
f 11/3/1 9/3/1 10/3/1
f 12/1/1 11/1/1 10/1/1
f 12/3/1 9/3/1 11/3/1
f 13/3/1 9/3/1 12/3/1
f 14/1/1 12/1/1 10/1/1
f 14/1/1 13/1/1 12/1/1
f 15/1/1 13/1/1 14/1/1
f 16/2/2 17/2/2 18/2/2
f 18/2/2 17/2/2 19/2/2
f 18/3/2 19/3/2 20/3/2
f 20/3/2 19/3/2 21/3/2
f 20/1/2 21/1/2 22/1/2
f 21/3/2 19/3/2 22/3/2
f 22/3/2 19/3/2 23/3/2
f 20/1/2 22/1/2 24/1/2
f 22/1/2 23/1/2 24/1/2
f 24/1/2 23/1/2 25/1/2
f 32/1/3 29/1/3 28/1/3
f 32/3/3 30/3/3 29/3/3
f 33/1/3 31/1/3 30/1/3
f 33/3/3 30/3/3 32/3/3
f 34/2/3 27/2/3 26/2/3
f 35/3/3 28/3/3 27/3/3
f 35/2/3 27/2/3 34/2/3
f 36/1/3 32/1/3 28/1/3
f 36/3/3 28/3/3 35/3/3
f 36/1/3 33/1/3 32/1/3
f 37/1/3 31/1/3 33/1/3
f 37/1/3 33/1/3 36/1/3
f 38/2/4 39/2/4 43/2/4
f 39/1/4 40/1/4 43/1/4
f 40/3/4 41/3/4 44/3/4
f 43/1/4 40/1/4 44/1/4
f 41/1/4 42/1/4 45/1/4
f 44/3/4 41/3/4 45/3/4
f 38/2/4 43/2/4 46/2/4
f 43/3/4 44/3/4 47/3/4
f 46/2/4 43/2/4 47/2/4
f 44/1/4 45/1/4 48/1/4
f 47/3/4 44/3/4 48/3/4
f 45/1/4 42/1/4 49/1/4
f 48/1/4 45/1/4 49/1/4
f 52/2/5 51/2/5 50/2/5
f 53/2/5 51/2/5 52/2/5
f 54/1/6 55/1/6 56/1/6
f 56/1/6 55/1/6 57/1/6
