# MagicaVoxel @ Ephtracy

# group
o 

# material
mtllib tree -4.mtl
usemtl palette

# normals
vn -1 0 0
vn 1 0 0
vn 0 0 1
vn 0 0 -1
vn 0 -1 0
vn 0 1 0

# texcoords
vt 0.939453 0.5
vt 0.943359 0.5
vt 0.994141 0.5

# verts
v -0.5 2.8 0.5
v -0.5 2.8 0.3
v -0.5 2.8 0.2
v -0.5 2.9 0.5
v -0.5 2.9 0.3
v -0.5 2.9 0.2
v -0.4 2.6 0.4
v -0.4 2.6 0.3
v -0.4 2.8 0.4
v -0.4 2.8 0.3
v -0.3 2.6 0.4
v -0.3 2.6 0.3
v -0.3 2.8 0.4
v -0.3 2.8 0.3
v -0.2 2.8 0.5
v -0.2 2.8 0.4
v -0.2 2.8 0.3
v -0.2 2.8 0.2
v -0.2 2.9 0.5
v -0.2 2.9 0.4
v -0.2 2.9 0.3
v -0.2 2.9 0.2
v -0.5 2.8 0.5
v -0.5 2.9 0.5
v -0.4 2.8 0.5
v -0.4 2.9 0.5
v -0.3 2.8 0.5
v -0.3 2.9 0.5
v -0.2 2.8 0.5
v -0.2 2.9 0.5
v -0.4 2.6 0.4
v -0.4 2.8 0.4
v -0.3 2.6 0.4
v -0.3 2.8 0.4
v -0.4 2.6 0.3
v -0.4 2.8 0.3
v -0.3 2.6 0.3
v -0.3 2.8 0.3
v -0.5 2.8 0.2
v -0.5 2.9 0.2
v -0.4 2.8 0.2
v -0.4 2.9 0.2
v -0.2 2.8 0.2
v -0.2 2.9 0.2
v -0.4 2.6 0.4
v -0.3 2.6 0.4
v -0.4 2.6 0.3
v -0.3 2.6 0.3
v -0.5 2.8 0.5
v -0.4 2.8 0.5
v -0.3 2.8 0.5
v -0.2 2.8 0.5
v -0.4 2.8 0.4
v -0.3 2.8 0.4
v -0.2 2.8 0.4
v -0.5 2.8 0.3
v -0.4 2.8 0.3
v -0.3 2.8 0.3
v -0.2 2.8 0.3
v -0.5 2.8 0.2
v -0.4 2.8 0.2
v -0.2 2.8 0.2
v -0.5 2.9 0.5
v -0.4 2.9 0.5
v -0.3 2.9 0.5
v -0.2 2.9 0.5
v -0.4 2.9 0.4
v -0.3 2.9 0.4
v -0.2 2.9 0.4
v -0.5 2.9 0.3
v -0.4 2.9 0.3
v -0.3 2.9 0.3
v -0.2 2.9 0.3
v -0.5 2.9 0.2
v -0.4 2.9 0.2
v -0.2 2.9 0.2

# faces
f 4/3/1 2/3/1 1/3/1
f 5/2/1 3/2/1 2/2/1
f 5/3/1 2/3/1 4/3/1
f 6/2/1 3/2/1 5/2/1
f 9/1/1 8/1/1 7/1/1
f 10/1/1 8/1/1 9/1/1
f 11/1/2 12/1/2 13/1/2
f 13/1/2 12/1/2 14/1/2
f 15/3/2 16/3/2 19/3/2
f 16/2/2 17/2/2 20/2/2
f 19/3/2 16/3/2 20/3/2
f 17/3/2 18/3/2 21/3/2
f 20/2/2 17/2/2 21/2/2
f 21/3/2 18/3/2 22/3/2
f 25/3/3 24/3/3 23/3/3
f 26/3/3 24/3/3 25/3/3
f 27/2/3 26/2/3 25/2/3
f 28/2/3 26/2/3 27/2/3
f 29/3/3 28/3/3 27/3/3
f 30/3/3 28/3/3 29/3/3
f 33/1/3 32/1/3 31/1/3
f 34/1/3 32/1/3 33/1/3
f 35/1/4 36/1/4 37/1/4
f 37/1/4 36/1/4 38/1/4
f 39/2/4 40/2/4 41/2/4
f 41/2/4 40/2/4 42/2/4
f 41/3/4 42/3/4 43/3/4
f 43/3/4 42/3/4 44/3/4
f 47/1/5 46/1/5 45/1/5
f 48/1/5 46/1/5 47/1/5
f 53/3/5 50/3/5 49/3/5
f 53/2/5 51/2/5 50/2/5
f 54/3/5 52/3/5 51/3/5
f 54/2/5 51/2/5 53/2/5
f 55/3/5 52/3/5 54/3/5
f 56/3/5 53/3/5 49/3/5
f 57/3/5 53/3/5 56/3/5
f 58/2/5 55/2/5 54/2/5
f 59/2/5 55/2/5 58/2/5
f 60/2/5 57/2/5 56/2/5
f 61/3/5 58/3/5 57/3/5
f 61/2/5 57/2/5 60/2/5
f 61/3/5 59/3/5 58/3/5
f 62/3/5 59/3/5 61/3/5
f 63/3/6 64/3/6 67/3/6
f 64/2/6 65/2/6 67/2/6
f 65/3/6 66/3/6 68/3/6
f 67/2/6 65/2/6 68/2/6
f 68/3/6 66/3/6 69/3/6
f 63/3/6 67/3/6 70/3/6
f 67/3/6 68/3/6 70/3/6
f 70/3/6 68/3/6 71/3/6
f 68/2/6 69/2/6 72/2/6
f 71/3/6 68/3/6 72/3/6
f 72/2/6 69/2/6 73/2/6
f 70/2/6 71/2/6 74/2/6
f 71/3/6 72/3/6 75/3/6
f 74/2/6 71/2/6 75/2/6
f 72/3/6 73/3/6 75/3/6
f 75/3/6 73/3/6 76/3/6
