# MagicaVoxel @ Ephtracy

# group
o 

# material
mtllib tree -1.mtl
usemtl palette

# normals
vn -1 0 0
vn 1 0 0
vn 0 0 1
vn 0 0 -1
vn 0 -1 0
vn 0 1 0

# texcoords
vt 0.939453 0.5
vt 0.943359 0.5
vt 0.994141 0.5

# verts
v -0.6 2.8 0.5
v -0.6 2.8 0.4
v -0.6 2.8 0.3
v -0.6 2.8 0.2
v -0.6 2.9 0.5
v -0.6 2.9 0.4
v -0.6 2.9 0.3
v -0.6 2.9 0.2
v -0.5 2.8 0.6
v -0.5 2.8 0.5
v -0.5 2.8 0.2
v -0.5 2.8 0.1
v -0.5 2.9 0.6
v -0.5 2.9 0.5
v -0.5 2.9 0.4
v -0.5 2.9 0.3
v -0.5 2.9 0.2
v -0.5 2.9 0.1
v -0.5 3 0.4
v -0.5 3 0.3
v -0.4 2.5 0.4
v -0.4 2.5 0.3
v -0.4 2.8 0.4
v -0.4 2.8 0.3
v -0.4 2.9 0.5
v -0.4 2.9 0.4
v -0.4 2.9 0.3
v -0.4 2.9 0.2
v -0.4 3 0.5
v -0.4 3 0.4
v -0.4 3 0.3
v -0.4 3 0.2
v -0.3 2.8 0.5
v -0.3 2.8 0.4
v -0.3 2.8 0.3
v -0.3 2.8 0.2
v -0.3 2.9 0.5
v -0.3 2.9 0.4
v -0.3 2.9 0.3
v -0.3 2.9 0.2
v -0.2 2.8 0.4
v -0.2 2.8 0.3
v -0.2 2.9 0.4
v -0.2 2.9 0.3
v -0.5 2.8 0.4
v -0.5 2.8 0.3
v -0.5 2.9 0.4
v -0.5 2.9 0.3
v -0.4 2.8 0.5
v -0.4 2.8 0.4
v -0.4 2.8 0.3
v -0.4 2.8 0.2
v -0.4 2.9 0.5
v -0.4 2.9 0.4
v -0.4 2.9 0.3
v -0.4 2.9 0.2
v -0.3 2.5 0.4
v -0.3 2.5 0.3
v -0.3 2.8 0.4
v -0.3 2.8 0.3
v -0.3 2.9 0.5
v -0.3 2.9 0.4
v -0.3 2.9 0.3
v -0.3 2.9 0.2
v -0.3 3 0.5
v -0.3 3 0.4
v -0.3 3 0.3
v -0.3 3 0.2
v -0.2 2.8 0.6
v -0.2 2.8 0.5
v -0.2 2.8 0.2
v -0.2 2.8 0.1
v -0.2 2.9 0.6
v -0.2 2.9 0.5
v -0.2 2.9 0.4
v -0.2 2.9 0.3
v -0.2 2.9 0.2
v -0.2 2.9 0.1
v -0.2 3 0.4
v -0.2 3 0.3
v -0.1 2.8 0.5
v -0.1 2.8 0.3
v -0.1 2.8 0.2
v -0.1 2.9 0.5
v -0.1 2.9 0.3
v -0.1 2.9 0.2
v -0.5 2.8 0.6
v -0.5 2.9 0.6
v -0.4 2.8 0.6
v -0.4 2.9 0.6
v -0.2 2.8 0.6
v -0.2 2.9 0.6
v -0.6 2.8 0.5
v -0.6 2.9 0.5
v -0.5 2.8 0.5
v -0.5 2.9 0.5
v -0.4 2.9 0.5
v -0.4 3 0.5
v -0.3 2.9 0.5
v -0.3 3 0.5
v -0.2 2.8 0.5
v -0.2 2.9 0.5
v -0.1 2.8 0.5
v -0.1 2.9 0.5
v -0.5 2.9 0.4
v -0.5 3 0.4
v -0.4 2.5 0.4
v -0.4 2.8 0.4
v -0.4 2.9 0.4
v -0.4 3 0.4
v -0.3 2.5 0.4
v -0.3 2.8 0.4
v -0.3 2.9 0.4
v -0.3 3 0.4
v -0.2 2.9 0.4
v -0.2 3 0.4
v -0.5 2.8 0.3
v -0.5 2.9 0.3
v -0.4 2.8 0.3
v -0.4 2.9 0.3
v -0.3 2.8 0.3
v -0.3 2.9 0.3
v -0.2 2.8 0.3
v -0.2 2.9 0.3
v -0.4 2.8 0.2
v -0.4 2.9 0.2
v -0.3 2.8 0.2
v -0.3 2.9 0.2
v -0.4 2.8 0.5
v -0.4 2.9 0.5
v -0.3 2.8 0.5
v -0.3 2.9 0.5
v -0.5 2.8 0.4
v -0.5 2.9 0.4
v -0.4 2.8 0.4
v -0.4 2.9 0.4
v -0.3 2.8 0.4
v -0.3 2.9 0.4
v -0.2 2.8 0.4
v -0.2 2.9 0.4
v -0.5 2.9 0.3
v -0.5 3 0.3
v -0.4 2.5 0.3
v -0.4 2.8 0.3
v -0.4 2.9 0.3
v -0.4 3 0.3
v -0.3 2.5 0.3
v -0.3 2.8 0.3
v -0.3 2.9 0.3
v -0.3 3 0.3
v -0.2 2.9 0.3
v -0.2 3 0.3
v -0.6 2.8 0.2
v -0.6 2.9 0.2
v -0.5 2.8 0.2
v -0.5 2.9 0.2
v -0.4 2.9 0.2
v -0.4 3 0.2
v -0.3 2.9 0.2
v -0.3 3 0.2
v -0.2 2.8 0.2
v -0.2 2.9 0.2
v -0.1 2.8 0.2
v -0.1 2.9 0.2
v -0.5 2.8 0.1
v -0.5 2.9 0.1
v -0.4 2.8 0.1
v -0.4 2.9 0.1
v -0.3 2.8 0.1
v -0.3 2.9 0.1
v -0.2 2.8 0.1
v -0.2 2.9 0.1
v -0.4 2.5 0.4
v -0.3 2.5 0.4
v -0.4 2.5 0.3
v -0.3 2.5 0.3
v -0.5 2.8 0.6
v -0.4 2.8 0.6
v -0.2 2.8 0.6
v -0.6 2.8 0.5
v -0.5 2.8 0.5
v -0.4 2.8 0.5
v -0.3 2.8 0.5
v -0.2 2.8 0.5
v -0.1 2.8 0.5
v -0.6 2.8 0.4
v -0.5 2.8 0.4
v -0.4 2.8 0.4
v -0.3 2.8 0.4
v -0.2 2.8 0.4
v -0.6 2.8 0.3
v -0.5 2.8 0.3
v -0.4 2.8 0.3
v -0.3 2.8 0.3
v -0.2 2.8 0.3
v -0.1 2.8 0.3
v -0.6 2.8 0.2
v -0.5 2.8 0.2
v -0.4 2.8 0.2
v -0.3 2.8 0.2
v -0.2 2.8 0.2
v -0.1 2.8 0.2
v -0.5 2.8 0.1
v -0.4 2.8 0.1
v -0.3 2.8 0.1
v -0.2 2.8 0.1
v -0.4 2.9 0.5
v -0.3 2.9 0.5
v -0.5 2.9 0.4
v -0.4 2.9 0.4
v -0.3 2.9 0.4
v -0.2 2.9 0.4
v -0.5 2.9 0.3
v -0.4 2.9 0.3
v -0.3 2.9 0.3
v -0.2 2.9 0.3
v -0.4 2.9 0.2
v -0.3 2.9 0.2
v -0.5 2.9 0.6
v -0.4 2.9 0.6
v -0.2 2.9 0.6
v -0.6 2.9 0.5
v -0.5 2.9 0.5
v -0.4 2.9 0.5
v -0.3 2.9 0.5
v -0.2 2.9 0.5
v -0.1 2.9 0.5
v -0.6 2.9 0.4
v -0.5 2.9 0.4
v -0.4 2.9 0.4
v -0.3 2.9 0.4
v -0.2 2.9 0.4
v -0.6 2.9 0.3
v -0.5 2.9 0.3
v -0.4 2.9 0.3
v -0.3 2.9 0.3
v -0.2 2.9 0.3
v -0.1 2.9 0.3
v -0.6 2.9 0.2
v -0.5 2.9 0.2
v -0.4 2.9 0.2
v -0.3 2.9 0.2
v -0.2 2.9 0.2
v -0.1 2.9 0.2
v -0.5 2.9 0.1
v -0.4 2.9 0.1
v -0.3 2.9 0.1
v -0.2 2.9 0.1
v -0.4 3 0.5
v -0.3 3 0.5
v -0.5 3 0.4
v -0.4 3 0.4
v -0.3 3 0.4
v -0.2 3 0.4
v -0.5 3 0.3
v -0.4 3 0.3
v -0.3 3 0.3
v -0.2 3 0.3
v -0.4 3 0.2
v -0.3 3 0.2

# faces
f 5/3/1 2/3/1 1/3/1
f 6/2/1 3/2/1 2/2/1
f 6/3/1 2/3/1 5/3/1
f 7/3/1 4/3/1 3/3/1
f 7/2/1 3/2/1 6/2/1
f 8/3/1 4/3/1 7/3/1
f 13/2/1 10/2/1 9/2/1
f 14/2/1 10/2/1 13/2/1
f 17/3/1 12/3/1 11/3/1
f 18/3/1 12/3/1 17/3/1
f 19/3/1 16/3/1 15/3/1
f 20/3/1 16/3/1 19/3/1
f 23/1/1 22/1/1 21/1/1
f 24/1/1 22/1/1 23/1/1
f 26/1/1 24/1/1 23/1/1
f 27/1/1 24/1/1 26/1/1
f 29/3/1 26/3/1 25/3/1
f 30/3/1 26/3/1 29/3/1
f 31/3/1 28/3/1 27/3/1
f 32/3/1 28/3/1 31/3/1
f 37/3/1 34/3/1 33/3/1
f 38/3/1 34/3/1 37/3/1
f 39/3/1 36/3/1 35/3/1
f 40/3/1 36/3/1 39/3/1
f 43/3/1 42/3/1 41/3/1
f 44/3/1 42/3/1 43/3/1
f 45/2/2 46/2/2 47/2/2
f 47/2/2 46/2/2 48/2/2
f 49/3/2 50/3/2 53/3/2
f 53/3/2 50/3/2 54/3/2
f 51/3/2 52/3/2 55/3/2
f 55/3/2 52/3/2 56/3/2
f 57/1/2 58/1/2 59/1/2
f 59/1/2 58/1/2 60/1/2
f 59/1/2 60/1/2 62/1/2
f 62/1/2 60/1/2 63/1/2
f 61/3/2 62/3/2 65/3/2
f 65/3/2 62/3/2 66/3/2
f 63/3/2 64/3/2 67/3/2
f 67/3/2 64/3/2 68/3/2
f 69/3/2 70/3/2 73/3/2
f 73/3/2 70/3/2 74/3/2
f 71/3/2 72/3/2 77/3/2
f 77/3/2 72/3/2 78/3/2
f 75/2/2 76/2/2 79/2/2
f 79/2/2 76/2/2 80/2/2
f 81/3/2 82/3/2 84/3/2
f 82/2/2 83/2/2 85/2/2
f 84/3/2 82/3/2 85/3/2
f 85/2/2 83/2/2 86/2/2
f 89/2/3 88/2/3 87/2/3
f 90/2/3 88/2/3 89/2/3
f 91/3/3 90/3/3 89/3/3
f 92/3/3 90/3/3 91/3/3
f 95/3/3 94/3/3 93/3/3
f 96/3/3 94/3/3 95/3/3
f 99/3/3 98/3/3 97/3/3
f 100/3/3 98/3/3 99/3/3
f 103/3/3 102/3/3 101/3/3
f 104/3/3 102/3/3 103/3/3
f 109/3/3 106/3/3 105/3/3
f 110/3/3 106/3/3 109/3/3
f 111/1/3 108/1/3 107/1/3
f 111/1/3 109/1/3 108/1/3
f 112/1/3 109/1/3 111/1/3
f 113/1/3 109/1/3 112/1/3
f 115/2/3 114/2/3 113/2/3
f 116/2/3 114/2/3 115/2/3
f 119/3/3 118/3/3 117/3/3
f 120/3/3 118/3/3 119/3/3
f 123/3/3 122/3/3 121/3/3
f 124/3/3 122/3/3 123/3/3
f 127/2/3 126/2/3 125/2/3
f 128/2/3 126/2/3 127/2/3
f 129/3/4 130/3/4 131/3/4
f 131/3/4 130/3/4 132/3/4
f 133/3/4 134/3/4 135/3/4
f 135/3/4 134/3/4 136/3/4
f 137/3/4 138/3/4 139/3/4
f 139/3/4 138/3/4 140/3/4
f 141/3/4 142/3/4 145/3/4
f 145/3/4 142/3/4 146/3/4
f 143/1/4 144/1/4 147/1/4
f 144/1/4 145/1/4 147/1/4
f 147/1/4 145/1/4 148/1/4
f 148/1/4 145/1/4 149/1/4
f 149/2/4 150/2/4 151/2/4
f 151/2/4 150/2/4 152/2/4
f 153/3/4 154/3/4 155/3/4
f 155/3/4 154/3/4 156/3/4
f 157/3/4 158/3/4 159/3/4
f 159/3/4 158/3/4 160/3/4
f 161/2/4 162/2/4 163/2/4
f 163/2/4 162/2/4 164/2/4
f 165/3/4 166/3/4 167/3/4
f 167/3/4 166/3/4 168/3/4
f 167/2/4 168/2/4 169/2/4
f 169/2/4 168/2/4 170/2/4
f 169/3/4 170/3/4 171/3/4
f 171/3/4 170/3/4 172/3/4
f 175/1/5 174/1/5 173/1/5
f 176/1/5 174/1/5 175/1/5
f 181/2/5 178/2/5 177/2/5
f 182/3/5 179/3/5 178/3/5
f 182/2/5 178/2/5 181/2/5
f 183/3/5 179/3/5 182/3/5
f 184/3/5 179/3/5 183/3/5
f 186/3/5 181/3/5 180/3/5
f 186/3/5 182/3/5 181/3/5
f 187/3/5 182/3/5 186/3/5
f 188/3/5 182/3/5 187/3/5
f 189/3/5 185/3/5 184/3/5
f 189/3/5 184/3/5 183/3/5
f 190/3/5 185/3/5 189/3/5
f 191/2/5 187/2/5 186/2/5
f 192/2/5 187/2/5 191/2/5
f 195/3/5 185/3/5 190/3/5
f 196/3/5 185/3/5 195/3/5
f 197/3/5 193/3/5 192/3/5
f 197/3/5 192/3/5 191/3/5
f 198/3/5 193/3/5 197/3/5
f 199/3/5 193/3/5 198/3/5
f 200/3/5 195/3/5 194/3/5
f 201/2/5 196/2/5 195/2/5
f 201/3/5 195/3/5 200/3/5
f 202/2/5 196/2/5 201/2/5
f 203/3/5 199/3/5 198/3/5
f 204/2/5 200/2/5 199/2/5
f 204/3/5 199/3/5 203/3/5
f 205/3/5 201/3/5 200/3/5
f 205/2/5 200/2/5 204/2/5
f 206/3/5 201/3/5 205/3/5
f 210/3/5 208/3/5 207/3/5
f 211/3/5 208/3/5 210/3/5
f 213/3/5 210/3/5 209/3/5
f 214/3/5 210/3/5 213/3/5
f 215/2/5 212/2/5 211/2/5
f 216/2/5 212/2/5 215/2/5
f 217/3/5 215/3/5 214/3/5
f 218/3/5 215/3/5 217/3/5
f 219/2/6 220/2/6 223/2/6
f 220/3/6 221/3/6 224/3/6
f 223/2/6 220/2/6 224/2/6
f 224/3/6 221/3/6 225/3/6
f 225/3/6 221/3/6 226/3/6
f 222/3/6 223/3/6 228/3/6
f 223/3/6 224/3/6 228/3/6
f 228/3/6 224/3/6 229/3/6
f 229/3/6 224/3/6 230/3/6
f 226/3/6 227/3/6 231/3/6
f 225/3/6 226/3/6 231/3/6
f 231/3/6 227/3/6 232/3/6
f 228/2/6 229/2/6 233/2/6
f 233/2/6 229/2/6 234/2/6
f 232/3/6 227/3/6 237/3/6
f 237/3/6 227/3/6 238/3/6
f 234/3/6 235/3/6 239/3/6
f 233/3/6 234/3/6 239/3/6
f 239/3/6 235/3/6 240/3/6
f 240/3/6 235/3/6 241/3/6
f 236/3/6 237/3/6 242/3/6
f 237/2/6 238/2/6 243/2/6
f 242/3/6 237/3/6 243/3/6
f 243/2/6 238/2/6 244/2/6
f 240/3/6 241/3/6 245/3/6
f 241/2/6 242/2/6 246/2/6
f 245/3/6 241/3/6 246/3/6
f 242/3/6 243/3/6 247/3/6
f 246/2/6 242/2/6 247/2/6
f 247/3/6 243/3/6 248/3/6
f 249/3/6 250/3/6 252/3/6
f 252/3/6 250/3/6 253/3/6
f 251/3/6 252/3/6 255/3/6
f 252/3/6 253/3/6 255/3/6
f 255/3/6 253/3/6 256/3/6
f 253/2/6 254/2/6 257/2/6
f 256/3/6 253/3/6 257/3/6
f 257/2/6 254/2/6 258/2/6
f 256/3/6 257/3/6 259/3/6
f 259/3/6 257/3/6 260/3/6
